<?xml version="1.0" encoding="UTF-8"?>
<svg width="29px" height="40px" viewBox="0 0 29 40" version="1.1" xmlns="http://www.w3.org/2000/svg" xmlns:xlink="http://www.w3.org/1999/xlink">
    <!-- Generator: Sketch 43.2 (39069) - http://www.bohemiancoding.com/sketch -->
    <title>logo</title>
    <desc>Created with Sketch.</desc>
    <defs></defs>
    <g id="Page-1" stroke="none" stroke-width="1" fill="none" fill-rule="evenodd">
        <g id="schema" transform="translate(-666.000000, -424.000000)">
            <g id="community" transform="translate(180.000000, 65.000000)">
                <g transform="translate(334.000000, 290.000000)" id="digital-flask-community">
                    <g transform="translate(152.000000, 69.000000)">
                        <g id="logo">
                            <g id="flask-grey-copy">
                                <path d="M26.9503152,34.4680199 C26.9049587,34.2555523 26.8290445,33.9621982 26.7240378,33.5941162 C26.5212222,32.8831827 26.2138988,31.9068212 25.8071899,30.6763831 C25.1181291,28.5917308 24.1976019,25.9332881 22.8842794,22.2102043 C22.8185176,22.0238049 22.8185176,22.0238049 22.7527349,21.8374447 C22.5178365,21.1720684 22.2767582,20.4904416 21.9624542,19.6026877 C21.9641981,19.6076133 21.3621717,17.9075377 21.1961804,17.4384831 C20.5937325,15.7360979 20.1874525,14.5830501 19.8325087,13.5657161 C18.8698245,10.806486 18.4565574,9.54829651 18.4260101,9.1813373 C18.385305,8.69235481 18.3742646,7.62327487 18.3839382,6.09590489 C18.3874843,5.53602073 18.3937121,4.9418031 18.4020891,4.31195163 C18.4083768,3.83918427 18.4233017,2.87461053 18.4233018,2.85271335 C18.4233034,2.59672804 18.4556363,2.50506488 18.8084683,1.71215337 C18.6105067,1.71230755 18.4045208,1.71249561 18.1915868,1.71272101 C16.8804402,1.71410887 15.5698705,1.71661014 14.3467559,1.72050236 C12.5548844,1.7262045 10.9401887,1.73686614 9.94395522,1.74656503 C10.1036956,2.08223163 10.2064256,2.4139423 10.2435963,2.7714959 C10.2922413,3.23942344 10.318386,4.27230575 10.3356314,5.92946922 C10.3386926,6.22362599 10.3414072,6.5297613 10.3443503,6.90083467 C10.3456551,7.06536065 10.3501854,7.66176597 10.3512247,7.79259597 C10.357148,8.53825348 10.36196,8.91404591 10.3688706,9.0877836 C10.3885729,9.58310714 9.57411961,11.9717971 5.99543809,22.2185716 C2.86292717,31.1877872 1.72753801,34.5006563 1.6839385,34.8695268 C1.63268595,35.3031453 2.0388847,35.8935611 3.29342049,36.4970409 C5.28628289,37.4556841 8.81095544,38.0671525 14.111143,38.170082 C19.3817852,38.2724378 22.9109977,37.7185209 24.9974503,36.7000491 C26.2920886,36.0680901 26.8266721,35.399455 26.9900436,34.6876527 C26.9835802,34.6361523 26.9703281,34.5617685 26.9503152,34.4680199 Z M25.6836406,38.1101147 C23.3383903,39.2549149 19.5776883,39.8451645 14.0807795,39.7384147 C8.57606472,39.6315133 4.84711727,38.9846068 2.61532579,37.9110295 C0.804926105,37.0401578 -0.00980596844,35.8559329 0.128580806,34.6851216 C0.195126878,34.1221133 1.04980379,31.628314 4.50637428,21.7312293 C6.06239376,17.2759068 6.81726272,15.1030737 7.50147157,13.0963744 C7.9283018,11.8445345 8.2532953,10.8711772 8.4763488,10.1740279 C8.59387721,9.8066951 8.68236763,9.51826742 8.74051878,9.31281118 C8.76846776,9.21406347 8.7887125,9.13686785 8.80068761,9.08428865 C8.79599712,8.95169089 8.79117051,8.57475149 8.78505633,7.80507565 C8.78401417,7.67388453 8.77948385,7.07746589 8.77818179,6.91329438 C8.77524819,6.54341021 8.77254435,6.23848935 8.76949863,5.94581758 C8.75295521,4.35611812 8.72698459,3.33011023 8.68579943,2.93394069 C8.66225475,2.70745894 8.56709753,2.4640254 8.39903613,2.175335 C8.34314831,2.07933272 8.10407843,1.70541475 8.05383055,1.61453803 C7.95878049,1.44263354 7.90336477,1.3017603 7.89444851,1.10858076 C7.87433747,0.672855005 8.16686458,0.317600124 8.5767824,0.229045969 C8.80491609,0.179762466 10.5083135,0.164081782 14.3417795,0.151882829 C15.5661299,0.14798667 16.8777607,0.145483381 18.1899315,0.144094432 C18.6501669,0.143607267 19.0779749,0.14329437 19.4625174,0.143120964 C19.5976922,0.143060008 19.6775482,0.143034039 19.8220306,0.142999263 C19.9285267,0.142981871 19.9285267,0.142981871 19.953619,0.142981869 C20.2564364,0.142981868 20.5250633,0.313684796 20.6587917,0.574141828 C20.7300723,0.712972019 20.7499361,0.83676974 20.7479812,0.961238593 C20.7464743,1.05718449 20.7317352,1.13428914 20.7077741,1.22044541 C20.684047,1.30576015 20.6492523,1.40153711 20.6005118,1.52226188 C20.535375,1.68359849 20.4783853,1.81365552 20.3007809,2.21210059 C20.1681211,2.50974847 20.1031017,2.65855047 20.0478691,2.79356789 C20.0168455,2.8694059 19.9942333,2.92867166 19.9810272,2.96813824 C19.9895195,2.8888338 19.9742376,3.87647955 19.968168,4.33284453 C19.959836,4.95931429 19.953645,5.55002187 19.9501246,6.10585493 C19.9408108,7.57641113 19.9516806,8.62897263 19.9868128,9.0510089 C20.014332,9.38159155 19.8170563,8.81616316 24.2293697,21.3145418 C24.2952149,21.5010789 24.2952149,21.5010789 24.3610441,21.6876696 C27.5297478,30.6704972 28.689055,34.1778111 28.5397346,34.9302251 C28.2986948,36.1448064 27.45828,37.24385 25.6836406,38.1101147 Z" id="Path-1" fill="#231F20" fill-rule="nonzero"></path>
                                <path d="M5.09442624,28.077245 C3.99237313,31.2392586 2.78044726,34.5433239 2.876794,34.8147524 C3.06239189,35.3376199 5.85378876,37.3674481 14.0360815,37.5252949 C18.0673437,37.603063 21.2237195,37.2623927 23.0888157,36.6521652 C25.0093237,36.0238078 25.5816735,35.1229137 25.8073767,35.033035 C26.2522709,34.8558706 22.3500773,22.3349501 21.545844,22.2353563 C21.1424041,22.1853955 20.2105406,22.2117134 19.2904512,22.0664602 C18.3763977,21.92216 17.4745251,21.6057195 16.9446226,21.7261124 C15.9450867,21.9532052 14.2817094,23.7551206 12.3754475,23.895078 C10.4691855,24.0350354 8.80540888,22.6095284 7.58907848,22.4207887 C7.00416408,22.3300267 6.11531697,25.1481027 5.09442624,28.077245 Z" id="Path-2" fill="#358DFF" fill-rule="nonzero"></path>
                                <ellipse id="Oval-1" fill="#358DFF" fill-rule="nonzero" cx="12.2687068" cy="19.3464052" rx="2.08829051" ry="2.09150327"></ellipse>
                                <ellipse id="Oval-2" fill="#358DFF" fill-rule="nonzero" cx="16.1842515" cy="14.1176471" rx="1.04414526" ry="1.04575163"></ellipse>
                            </g>
                        </g>
                    </g>
                </g>
            </g>
        </g>
    </g>
</svg>